Coordinates
version=1
nRows=16
nColumns=36
inDegrees=yes

Units are S.I. units (second, meters, Newtons, ...)
If the header above contains a line with 'inDegrees', this indicates whether rotational values are in degrees (yes) or radians (no).

endheader
time	pelvis_tilt	pelvis_list	pelvis_rotation	pelvis_tx	pelvis_ty	pelvis_tz	hip_flexion_r	hip_adduction_r	hip_rotation_r	knee_angle_r	knee_angle_r_beta	ankle_angle_r	subtalar_angle_r	mtp_angle_r	hip_flexion_l	hip_adduction_l	hip_rotation_l	knee_angle_l	knee_angle_l_beta	ankle_angle_l	subtalar_angle_l	mtp_angle_l	lumbar_extension	lumbar_bending	lumbar_rotation	arm_flex_r	arm_add_r	arm_rot_r	elbow_flex_r	pro_sup_r	arm_flex_l	arm_add_l	arm_rot_l	elbow_flex_l	pro_sup_l
     45.16666670	      2.96770059	     -2.49700815	     -6.23322413	      0.45900380	      0.93767979	      0.78344854	     -0.63368325	      5.33199254	     -1.82462427	     11.02466922	      0.19241678	      9.49391060	     -7.85919310	     -7.49999987	     18.18007625	     -4.14121774	     -4.18227582	     49.56170013	      0.86501485	      7.69968824	    -14.60048883	     -7.49999987	     -8.20767039	      2.24670317	      6.08251056	      8.53263373	    -11.69734027	     -2.97090994	     29.24570386	     75.84425432	      2.76646214	     -6.96315747	      5.04895294	      9.90293813	     74.64046085
     45.18333330	      3.20063453	     -2.09102576	     -6.11734004	      0.45376323	      0.93723558	      0.78451236	     -2.30723455	      4.85630141	     -2.02600406	     10.46415040	      0.18263388	     10.34498758	     -7.58434629	     -7.49999987	     19.53635043	     -3.60510872	     -4.34237978	     45.91402903	      0.80135098	      8.76311493	    -13.06430010	     -7.49999987	     -8.95617281	      1.73552406	      6.84777801	     10.73443672	    -12.93582954	     -0.60175028	     30.98167754	     76.74971341	      2.25898663	     -7.24869419	      5.41432372	      8.90665602	     75.64144242
     45.20000000	      3.36419295	     -1.80539723	     -6.10036498	      0.44987191	      0.93145020	      0.78585256	     -3.59253149	      4.47410308	     -2.17241087	     10.20021082	      0.17802726	     11.46704685	     -7.66816322	     -7.49999987	     21.03077275	     -3.39826098	     -4.62224416	     42.45298813	      0.74094442	      9.00259600	    -11.89812143	     -7.49999987	     -9.67154350	      1.39507183	      7.40825601	     13.08725643	    -13.69088972	     -0.41162826	     32.81731267	     76.45307736	      1.32103527	     -7.48243720	      5.32693344	      8.65405313	     75.46869913
     45.21666670	      3.19714484	     -1.60956333	     -6.17402927	      0.44857175	      0.92381432	      0.78763043	     -4.05264915	      4.10133331	     -2.46481720	     10.64005287	      0.18570396	     13.18563876	     -7.42908481	     -7.49999987	     22.82386471	     -3.53110702	     -5.07063126	     39.26855113	      0.68536551	      9.10524888	    -10.86867152	     -7.49999987	     -9.83494573	      1.14040983	      8.06630987	     15.03943496	    -14.64558354	      0.00327912	     34.80695563	     76.05207334	      0.22270110	     -7.58600819	      5.13773060	      8.39967512	     75.14565419
     45.23333330	      2.80108738	     -1.56132306	     -6.41051348	      0.44646482	      0.91754968	      0.78884594	     -3.65073539	      3.75276335	     -2.85483123	     12.09729477	      0.21113762	     15.06405134	     -7.10511202	     -7.49999987	     24.64420182	     -3.98894283	     -5.72202598	     36.12050839	      0.63042180	      8.73363218	     -9.89602175	     -7.49999987	     -9.66664742	      1.14532140	      8.58087210	     17.01852519	    -15.48111974	      0.20243555	     36.72193486	     75.84875631	     -1.34953606	     -7.56911430	      4.90363154	      8.30267903	     75.00276955
     45.25000000	      1.99570622	     -1.58063290	     -6.77106883	      0.44128800	      0.91314871	      0.78737726	     -1.94336308	      3.31255589	     -3.44387653	     15.00733887	      0.26192748	     16.60494580	     -6.95151672	     -7.49999987	     26.68080331	     -4.58810617	     -6.59510368	     32.81821517	      0.57278591	      8.12929692	     -8.67577113	     -7.49999987	     -9.03983090	      1.29479096	      8.87707993	     19.01690784	    -16.26725556	      0.59744982	     38.44605457	     75.80201433	     -3.44982420	     -7.46434384	      4.50091241	      8.58077568	     74.72510185
     45.26666670	      0.71086620	     -1.58822324	     -7.27643120	      0.43656902	      0.90892792	      0.78371200	      1.39298297	      2.66811467	     -4.19803973	     19.78637568	      0.34533740	     17.72830752	     -7.08862730	     -7.49999987	     29.12902867	     -5.23308513	     -7.63129026	     29.56904559	      0.51607720	      7.35252583	     -7.12421027	     -7.49999987	     -7.91083725	      1.53418509	      9.12438476	     20.70916794	    -16.88740759	     -0.01119229	     40.39405926	     80.29160555	     -5.82822429	     -7.16520144	      1.70634963	      9.07957504	     79.26763491
     45.28333330	     -0.35032317	     -1.46584994	     -7.75619063	      0.43681475	      0.90532535	      0.78031299	      5.47362229	      1.62351273	     -5.08417536	     26.17698797	      0.45687463	     18.63963894	     -7.40913704	     -7.49999987	     31.26651140	     -5.63829806	     -8.38000466	     26.73921066	      0.46668727	      6.74923921	     -5.51780389	     -7.49999987	     -7.20050838	      1.52008402	      9.00756457	     22.24869431	    -17.40268276	      0.03787144	     42.93096185	     79.21856940	     -8.58954637	     -6.93196669	      1.72662801	     10.52802501	     78.20320559
     45.30000000	     -1.75324207	     -1.42153401	     -8.31047726	      0.44174508	      0.90147876	      0.77884840	     10.56288176	      0.51939048	     -6.07275103	     33.68525755	      0.58791865	     20.05176758	     -6.56505327	     -7.49999987	     33.80021316	     -6.20616786	     -8.57402732	     25.19746261	      0.43977869	      6.92075014	     -4.21947297	     -7.49999987	     -5.45375889	      1.63447179	      9.07745486	     23.49938540	    -18.15782839	      1.11380613	     44.15487561	     78.95532843	    -10.67488233	     -6.30521628	      1.53344616	      9.80406230	     77.42609127
     45.31666670	     -1.85687582	     -1.55197714	     -8.71506355	      0.44647550	      0.89955190	      0.77868985	     14.31064404	     -0.55904215	     -6.83971125	     41.13425841	      0.71792824	     21.43626566	     -5.79956016	     -7.49999987	     34.75532573	     -6.65316822	     -8.08606711	     24.72706909	      0.43156877	      7.18205467	     -3.88586614	     -7.49999987	     -5.36418171	      1.62910747	      8.93082796	     24.88572551	    -18.65883562	      1.77195865	     45.71092092	     78.78062842	    -12.26868663	     -5.81993368	      1.30448611	      9.60851771	     76.78405610
     45.33333330	     -0.88426264	     -1.97915696	     -9.10613170	      0.44999095	      0.89950979	      0.77855136	     16.66091499	     -1.36036941	     -7.41667816	     47.98384619	      0.83747610	     22.31060398	     -5.67030366	     -7.49999987	     34.33270910	     -7.21353877	     -7.33634887	     25.31170268	      0.44177255	      7.25086757	     -4.35870177	     -7.49999987	     -6.43793396	      1.73149344	      8.98052836	     26.16695885	    -19.11332399	      1.75314706	     46.84552018	     79.00213330	    -13.11066063	     -5.28366487	      1.22849022	      9.13358817	     76.89263487
     45.35000000	      0.35492659	     -2.49788319	     -9.47953824	      0.45383028	      0.90005829	      0.77789699	     18.31011084	     -2.24305615	     -8.30577351	     54.15599999	      0.94520051	     22.50965548	     -5.26160960	     -7.49999987	     33.12143871	     -7.73112727	     -6.32392809	     26.19431595	      0.45717706	      5.98636331	     -5.87644724	     -7.49999987	     -7.73682203	      1.84635491	      9.13953091	     27.08528021	    -19.60674672	      2.01631258	     47.77981798	     79.37292046	    -13.33967225	     -4.98852801	      0.97879155	      8.85245716	     77.00211683
     45.36666670	      1.68566320	     -2.88074742	     -9.90172580	      0.45756134	      0.90032508	      0.77689221	     19.33830403	     -3.38679883	     -8.93281490	     59.69442004	      1.04186417	     21.81594781	     -5.58540040	     -7.49999987	     30.97908992	     -8.20784008	     -5.91500060	     26.68562175	      0.46575196	      4.27354689	     -7.13518773	     -7.49999987	     -8.85683792	      1.82658432	      9.30431240	     27.52970677	    -19.89041114	      2.13150715	     48.24551484	     79.60228590	    -13.36371037	     -4.79965637	      0.76407398	      8.58363117	     77.03281660
     45.38333330	      2.50499398	     -3.11805816	    -10.38389580	      0.45982754	      0.90001059	      0.77465281	     20.27353529	     -4.58245978	     -8.94181452	     64.34329033	      1.12300227	     20.68364462	     -5.75685226	     -7.49999987	     28.86826412	     -8.54164370	     -5.69996049	     27.00076866	      0.47125231	      2.91856713	     -7.64927902	     -7.49999987	     -9.12267647	      1.75023070	      9.27079079	     27.25189225	    -19.92305376	      2.25541038	     48.56188615	     79.72308145	    -13.47154537	     -4.64069947	      0.61049144	      8.49799887	     77.00295530
     45.40000000	      2.78914099	     -3.12338907	    -10.95080768	      0.46071125	      0.89945317	      0.77051094	     21.24472749	     -5.80084403	     -8.34625440	     68.02750885	      1.18730401	     19.28318512	     -5.49237611	     -7.49999987	     27.10733031	     -8.51409584	     -5.44837442	     27.10552766	      0.47308070	      2.12888920	     -8.11297516	     -7.49999987	     -8.73517217	      1.58340808	      9.02361337	     26.54482792	    -19.71434437	      2.48632079	     49.00218174	     79.64270158	    -13.55640714	     -4.50255364	      0.49053329	      8.36125316	     76.77505240
     45.41666670	      2.57230994	     -3.18278778	    -11.44894117	      0.46022015	      0.89816218	      0.76454921	     21.91707034	     -6.68583551	     -7.37879760	     70.33916167	      1.22764996	     18.09547293	     -4.63470256	     -7.49999987	     26.14062421	     -8.35624143	     -5.01406869	     27.44547067	      0.47901383	      1.81362427	     -8.69915303	     -7.49999987	     -7.83234327	      1.69056138	      8.90493882	     25.31963507	    -19.76757909	      2.76640689	     49.66433501	     79.79728361	    -13.34057322	     -4.28433980	      0.24516853	      8.18209297	     76.61785656
